<svg width="50" height="50" viewBox="0 0 50 50" fill="none" xmlns="http://www.w3.org/2000/svg">
<path d="M21.7668 37.8906H26.7952C27.2267 37.8906 27.5765 37.5408 27.5765 37.1094V25.7903H30.1889C30.5894 25.7903 30.925 25.4875 30.966 25.0892L31.4065 20.8146C31.4291 20.5946 31.3575 20.3753 31.2093 20.2111C31.0611 20.0469 30.8504 19.9532 30.6293 19.9532H27.5765V18.2218C27.5765 17.8642 27.6897 17.8374 27.8624 17.8374H30.5657C30.9972 17.8374 31.347 17.4876 31.347 17.0562V12.9058C31.347 12.4755 30.9991 12.1263 30.5689 12.1245L26.8406 12.1094C24.2281 12.1094 22.8339 13.2588 22.1243 14.2229C21.1335 15.5693 20.9856 17.1469 20.9856 17.9674V19.9531H19.3753C18.9439 19.9531 18.5941 20.3029 18.5941 20.7344V25.009C18.5941 25.4404 18.9439 25.7902 19.3753 25.7902H20.9856V37.1094C20.9856 37.5408 21.3353 37.8906 21.7668 37.8906ZM20.1565 24.2278V21.5157H21.7667C22.1982 21.5157 22.548 21.1659 22.548 20.7345V17.9675C22.548 17.4611 22.6293 16.1729 23.3826 15.1491C24.1039 14.1689 25.2674 13.672 26.8373 13.672L29.7843 13.6839V16.275H27.8622C26.9422 16.275 26.0138 16.877 26.0138 18.2219V20.7346C26.0138 21.166 26.3636 21.5158 26.795 21.5158H29.7633L29.4838 24.2279H26.795C26.3636 24.2279 26.0138 24.5777 26.0138 25.0092V36.3281H22.5479V25.0091C22.5479 24.5776 22.1981 24.2278 21.7666 24.2278H20.1565Z" fill="white"/>
<path d="M42.6779 7.32266C37.9561 2.60059 31.6778 0 25 0C18.3227 0 12.0447 2.60059 7.32266 7.32266C2.60059 12.0447 0 18.3227 0 25C0 31.6785 2.60059 37.9568 7.32266 42.6785C12.0444 47.3999 18.3224 50 25 50C31.6782 50 37.9563 47.3999 42.6778 42.6785C47.3996 37.9569 50 31.6786 50 25C50 18.3225 47.3996 12.0445 42.6779 7.32266ZM41.573 41.5736C37.1466 45.9999 31.2608 48.4375 25 48.4375C18.7396 48.4375 12.8541 45.9999 8.42744 41.5736C4.00049 37.1471 1.5625 31.261 1.5625 25C1.5625 18.74 4.00049 12.8545 8.42744 8.42754C12.8545 4.00049 18.74 1.5625 25 1.5625C31.2605 1.5625 37.1463 4.00049 41.573 8.42744C45.9997 12.8543 48.4375 18.7398 48.4375 25C48.4375 31.2612 45.9997 37.1472 41.573 41.5736Z" fill="white"/>
<path d="M41.9959 11.2275C41.724 10.8923 41.2321 10.8411 40.897 11.113C40.5619 11.3849 40.5107 11.8769 40.7825 12.2119C43.7037 15.8124 45.3125 20.354 45.3125 25C45.3125 30.4265 43.1997 35.5277 39.3634 39.3639C35.5271 43.1999 30.4261 45.3125 25 45.3125C19.9941 45.3125 15.1851 43.4759 11.4587 40.1411C11.1372 39.8534 10.6433 39.8807 10.3556 40.2022C10.0679 40.5237 10.0952 41.0176 10.4167 41.3053C14.43 44.897 19.6091 46.875 25 46.875C30.8435 46.875 36.3368 44.5999 40.4682 40.4687C44.5997 36.3373 46.875 30.8438 46.875 25C46.875 19.9967 45.1422 15.1056 41.9959 11.2275Z" fill="white"/>
<path d="M4.6875 25C4.6875 13.7997 13.7997 4.6875 25 4.6875C30.0059 4.6875 34.8148 6.52422 38.5412 9.85928C38.8628 10.1472 39.3567 10.1196 39.6443 9.79824C39.9321 9.47676 39.9048 8.98281 39.5833 8.69512C35.57 5.10313 30.3909 3.125 25 3.125C19.1573 3.125 13.6642 5.40049 9.53232 9.53232C5.40049 13.6641 3.125 19.1573 3.125 25C3.125 30.0039 4.85781 34.8953 8.0042 38.7732C8.15859 38.9636 8.38398 39.0623 8.61133 39.0623C8.78428 39.0623 8.9583 39.0052 9.10313 38.8877C9.43818 38.6158 9.48945 38.1238 9.21758 37.7888C6.29629 34.1883 4.6875 29.6465 4.6875 25Z" fill="white"/>
</svg>
