<svg width="50" height="50" viewBox="0 0 50 50" fill="none" xmlns="http://www.w3.org/2000/svg">
<g clip-path="url(#clip0_87_123)">
<path d="M42.6779 7.32266C37.9561 2.60059 31.6778 0 25 0C18.3227 0 12.0447 2.60059 7.32266 7.32266C2.60059 12.0447 0 18.3227 0 25C0 31.6785 2.60059 37.9568 7.32266 42.6785C12.0444 47.3999 18.3224 50 25 50C31.6782 50 37.9563 47.3999 42.6778 42.6785C47.3996 37.9569 50 31.6786 50 25C50 18.3225 47.3996 12.0445 42.6779 7.32266ZM41.573 41.5736C37.1466 45.9999 31.2608 48.4375 25 48.4375C18.7396 48.4375 12.8541 45.9999 8.42744 41.5736C4.00049 37.1471 1.5625 31.261 1.5625 25C1.5625 18.74 4.00049 12.8545 8.42744 8.42754C12.8545 4.00049 18.74 1.5625 25 1.5625C31.2605 1.5625 37.1463 4.00049 41.573 8.42744C45.9997 12.8543 48.4375 18.7398 48.4375 25C48.4375 31.2612 45.9997 37.1472 41.573 41.5736Z" fill="white"/>
<path d="M41.9959 11.2274C41.724 10.8923 41.2321 10.841 40.897 11.113C40.5619 11.3849 40.5107 11.8769 40.7825 12.2118C43.7037 15.8124 45.3125 20.354 45.3125 25C45.3125 30.4265 43.1997 35.5276 39.3634 39.3639C35.5271 43.1999 30.4261 45.3125 25 45.3125C19.9941 45.3125 15.1851 43.4759 11.4587 40.141C11.1372 39.8533 10.6433 39.8807 10.3556 40.2021C10.0679 40.5236 10.0952 41.0176 10.4167 41.3053C14.43 44.897 19.6091 46.875 25 46.875C30.8435 46.875 36.3368 44.5999 40.4682 40.4686C44.5997 36.3373 46.875 30.8437 46.875 25C46.875 19.9967 45.1422 15.1056 41.9959 11.2274Z" fill="white"/>
<path d="M4.6875 25C4.6875 13.7997 13.7997 4.6875 25 4.6875C30.0059 4.6875 34.8148 6.52422 38.5412 9.85928C38.8628 10.1472 39.3567 10.1196 39.6443 9.79824C39.9321 9.47676 39.9048 8.98281 39.5833 8.69512C35.57 5.10313 30.3909 3.125 25 3.125C19.1573 3.125 13.6642 5.40049 9.53232 9.53232C5.40049 13.6641 3.125 19.1573 3.125 25C3.125 30.0039 4.85781 34.8953 8.0042 38.7732C8.15859 38.9636 8.38398 39.0623 8.61133 39.0623C8.78428 39.0623 8.9583 39.0052 9.10313 38.8877C9.43818 38.6158 9.48945 38.1238 9.21758 37.7888C6.29629 34.1883 4.6875 29.6465 4.6875 25Z" fill="white"/>
<path d="M17.921 21.8947H13.5351C13.1717 21.8947 12.8772 22.1893 12.8772 22.5526V35.7104C12.8772 36.0738 13.1718 36.3683 13.5351 36.3683H17.921C18.2844 36.3683 18.5789 36.0738 18.5789 35.7104V22.5526C18.579 22.1893 18.2844 21.8947 17.921 21.8947ZM17.2632 35.0525H14.193V23.2105H17.2632V35.0525Z" fill="white"/>
<path d="M15.2894 14C13.4756 14 12 15.4756 12 17.2894C12 19.1033 13.4756 20.5789 15.2894 20.5789C17.1033 20.5789 18.5789 19.1033 18.5789 17.2894C18.5789 15.4756 17.1033 14 15.2894 14ZM15.2894 19.2631C14.2012 19.2631 13.3157 18.3777 13.3157 17.2894C13.3157 16.2012 14.2011 15.3157 15.2894 15.3157C16.3777 15.3157 17.2631 16.2012 17.2631 17.2894C17.2631 18.3777 16.3778 19.2631 15.2894 19.2631Z" fill="white"/>
<path d="M30.2017 21.8947C28.8952 21.8947 27.6081 22.233 26.4736 22.8628V22.5527C26.4736 22.1893 26.179 21.8948 25.8157 21.8948H22.307C21.9436 21.8948 21.6491 22.1894 21.6491 22.5527V35.7105C21.6491 36.0738 21.9437 36.3684 22.307 36.3684H26.6929C27.0563 36.3684 27.3508 36.0738 27.3508 35.7105V30.9872C27.3508 29.4403 27.6932 27.5965 29.3245 27.5965C30.5419 27.5965 31.0412 28.6235 31.2163 29.7875C31.2644 30.1067 31.541 30.3415 31.8639 30.3415C32.2691 30.3415 32.5737 29.9783 32.5112 29.578C32.1809 27.4643 31.0603 26.2808 29.3245 26.2808C27.234 26.2808 26.0351 27.9963 26.0351 30.9872V35.0526H22.9649V23.2105H25.1579V24.0756C25.1579 24.2796 25.2428 24.4789 25.4023 24.6061C25.65 24.8035 25.991 24.7967 26.2274 24.607C27.3668 23.6935 28.741 23.2105 30.2017 23.2105C33.9889 23.2105 35.6841 26.4046 35.6841 29.5701V35.0525H32.614V32.8861C32.614 32.5238 32.3203 32.2301 31.958 32.2301H31.9542C31.5919 32.2301 31.2983 32.5238 31.2983 32.8861V35.7103C31.2983 36.0737 31.5929 36.3682 31.9562 36.3682H36.3421C36.7055 36.3682 37 36.0736 37 35.7103V29.57C36.9998 25.051 34.2044 21.8947 30.2017 21.8947Z" fill="white"/>
</g>
<defs>
<clipPath id="clip0_87_123">
<rect width="50" height="50" fill="white"/>
</clipPath>
</defs>
</svg>
