<svg width="32" height="32" viewBox="0 0 32 32" fill="none" xmlns="http://www.w3.org/2000/svg">
<path d="M23.05 6.06248C23.2875 7.27498 24.35 8.16248 25.5875 8.16248C26.825 8.16248 27.8875 7.27498 28.125 6.06248L28.4375 4.47498C28.5375 3.69998 28.3125 2.92498 27.8 2.33748C27.2875 1.74998 26.55 1.41248 25.775 1.41248H25.4125C24.6375 1.41248 23.9 1.74998 23.3875 2.33748C22.875 2.92498 22.6375 3.69998 22.75 4.51248L23.05 6.06248ZM24.325 3.16248C24.6 2.84998 25 2.66248 25.425 2.66248H25.7875C26.2125 2.66248 26.6 2.83748 26.8875 3.16248C27.1625 3.47498 27.2875 3.89998 27.2375 4.27498L26.9375 5.82498C26.8125 6.46248 26.2625 6.91248 25.6125 6.91248C24.9625 6.91248 24.4125 6.44998 24.2875 5.82498L23.9875 4.31248C23.925 3.89998 24.05 3.47498 24.325 3.16248Z" fill="white"/>
<path d="M31.4125 14.3L30.7 10.925C30.6125 10.5125 30.3125 10.175 29.925 10.0375L27.4625 9.16248L25.6125 11.0125L23.7625 9.16248L21.3 10.0375C20.9125 10.175 20.6125 10.5125 20.525 10.925L19.8125 14.3C19.7375 14.6375 19.95 14.9625 20.2875 15.0375C20.625 15.1125 20.95 14.9 21.025 14.5625L21.725 11.2125L23.45 10.6L25.625 12.775L27.8 10.6L29.5 11.1875L30.2125 14.5625C30.275 14.85 30.5375 15.05 30.825 15.05C30.8625 15.05 30.9125 15.05 30.95 15.0375C31.2625 14.975 31.475 14.6375 31.4125 14.3Z" fill="white"/>
<path d="M3.86254 6.06248C4.10004 7.27498 5.16254 8.16248 6.40004 8.16248C7.63754 8.16248 8.70004 7.27498 8.93754 6.06248L9.25004 4.47498C9.35004 3.69998 9.12504 2.92498 8.61254 2.33748C8.10004 1.74998 7.36254 1.41248 6.58754 1.41248H6.22504C5.45004 1.41248 4.71254 1.74998 4.20004 2.33748C3.68754 2.92498 3.45004 3.69998 3.56254 4.51248L3.86254 6.06248ZM5.13754 3.16248C5.41254 2.84998 5.81254 2.66248 6.23754 2.66248H6.60004C7.02504 2.66248 7.41254 2.83748 7.70004 3.16248C7.97504 3.47498 8.10004 3.89998 8.05004 4.27498L7.75004 5.82498C7.62504 6.46248 7.07504 6.91248 6.42504 6.91248C5.77504 6.91248 5.22504 6.44998 5.10004 5.82498L4.80004 4.31248C4.72504 3.89998 4.86254 3.47498 5.13754 3.16248Z" fill="white"/>
<path d="M8.58752 10.6L10.2875 11.1875L11 14.5625C11.0625 14.85 11.325 15.05 11.6125 15.05C11.65 15.05 11.7 15.05 11.7375 15.0375C12.075 14.9625 12.2875 14.6375 12.2125 14.3L11.5 10.925C11.4125 10.5125 11.1125 10.175 10.725 10.0375L8.26252 9.16248L6.40002 11.025L4.55002 9.16248L2.08752 10.0375C1.70002 10.175 1.40002 10.5125 1.31252 10.925L0.600017 14.3C0.525017 14.6375 0.737517 14.9625 1.07502 15.0375C1.41252 15.1125 1.73752 14.9 1.81252 14.5625L2.50002 11.2125L4.22502 10.6L6.40002 12.775L8.58752 10.6Z" fill="white"/>
<path d="M16 23.6875C17.2375 23.6875 18.3 22.8 18.5375 21.5875L18.85 20C18.95 19.225 18.725 18.45 18.2125 17.8625C17.7 17.275 16.9625 16.9375 16.1875 16.9375H15.825C15.05 16.9375 14.3125 17.275 13.8 17.8625C13.2875 18.45 13.05 19.225 13.1625 20.0375L13.4625 21.5875C13.7 22.8 14.7625 23.6875 16 23.6875ZM14.725 18.6875C15 18.375 15.4 18.1875 15.825 18.1875H16.1875C16.6125 18.1875 17 18.3625 17.2875 18.6875C17.5625 19 17.6875 19.425 17.6375 19.8L17.3375 21.35C17.2125 21.9875 16.6625 22.4375 16.0125 22.4375C15.3625 22.4375 14.8125 21.975 14.6875 21.35L14.3875 19.8375C14.325 19.425 14.45 19 14.725 18.6875Z" fill="white"/>
<path d="M21.1 26.4625C21.0125 26.05 20.7125 25.7125 20.325 25.575L17.8625 24.7L16 26.5499L14.15 24.7L11.6875 25.575C11.3 25.7125 11 26.05 10.9125 26.4625L10.2 29.8375C10.125 30.175 10.3375 30.5 10.675 30.575C11.0125 30.65 11.3375 30.4375 11.4125 30.1L12.1 26.75L13.825 26.1375L16 28.3125L18.175 26.1375L19.875 26.725L20.5875 30.1C20.65 30.3875 20.9125 30.5875 21.2 30.5875C21.2375 30.5875 21.2875 30.5875 21.325 30.575C21.6625 30.5 21.875 30.175 21.8 29.8375L21.1 26.4625Z" fill="white"/>
<path d="M26.675 16.6875C26.325 16.65 26.025 16.9 26 17.25C25.75 19.8375 24.5125 22.1875 22.5375 23.875C22.275 24.1 22.25 24.4875 22.4625 24.75C22.5875 24.9 22.7625 24.9625 22.9375 24.9625C23.075 24.9625 23.225 24.9125 23.3375 24.8125C25.5625 22.9125 26.95 20.275 27.2375 17.3625C27.2625 17.025 27.0125 16.725 26.675 16.6875Z" fill="white"/>
<path d="M6.01254 17.25C5.97504 16.9125 5.67504 16.6625 5.33754 16.6875C5.00004 16.725 4.75004 17.025 4.77504 17.3625C5.06254 20.275 6.45004 22.925 8.67504 24.8125C8.78754 24.9125 8.93754 24.9625 9.07504 24.9625C9.25004 24.9625 9.42504 24.8875 9.55004 24.7375C9.77504 24.475 9.73754 24.0875 9.47504 23.8625C7.50004 22.1875 6.26254 19.8375 6.01254 17.25Z" fill="white"/>
<path d="M12.7125 6.76249C14.8 6.02499 17.2 6.02499 19.3 6.76249C19.3625 6.78749 19.4375 6.79999 19.5125 6.79999C19.7625 6.79999 20.0125 6.63749 20.1 6.38749C20.2125 6.06249 20.05 5.71249 19.725 5.59999C17.3625 4.76249 14.675 4.76249 12.3125 5.59999C11.9875 5.71249 11.825 6.07499 11.9375 6.38749C12.025 6.71249 12.3875 6.87499 12.7125 6.76249Z" fill="white"/>
</svg>
