<svg width="32" height="32" viewBox="0 0 32 32" fill="none" xmlns="http://www.w3.org/2000/svg">
<path d="M5.62498 7.89375C5.92498 7.89375 6.21873 7.8125 6.48123 7.66875C6.73748 7.81875 7.03123 7.89375 7.33748 7.89375C8.28123 7.89375 9.04998 7.125 9.04998 6.18125C9.04998 5.2375 8.28123 4.46875 7.33748 4.46875C7.03748 4.46875 6.74373 4.55 6.48123 4.69375C6.22498 4.54375 5.93123 4.46875 5.62498 4.46875C4.68123 4.46875 3.91248 5.2375 3.91248 6.18125C3.91248 7.125 4.68123 7.89375 5.62498 7.89375ZM5.62498 5.34375C5.83123 5.34375 6.03123 5.41875 6.18748 5.5625C6.35623 5.7125 6.60623 5.7125 6.77498 5.5625C6.93123 5.425 7.12498 5.35 7.33748 5.35C7.79998 5.35 8.17498 5.725 8.17498 6.1875C8.17498 6.65 7.79998 7.025 7.33748 7.025C7.13123 7.025 6.93123 6.95 6.77498 6.8125C6.69373 6.7375 6.58748 6.7 6.48123 6.7C6.37498 6.7 6.26873 6.7375 6.18748 6.8125C6.03123 6.95 5.83123 7.03125 5.62498 7.03125C5.16248 7.03125 4.78748 6.65625 4.78748 6.19375C4.78748 5.73125 5.16248 5.34375 5.62498 5.34375Z" fill="white"/>
<path d="M12.075 6.61874H13.3875C13.6312 6.61874 13.825 6.42499 13.825 6.18124C13.825 5.93749 13.6312 5.74374 13.3875 5.74374H12.075C11.8312 5.74374 11.6375 5.93749 11.6375 6.18124C11.6375 6.42499 11.8375 6.61874 12.075 6.61874Z" fill="white"/>
<path d="M15.1062 6.61874H16.4187C16.6625 6.61874 16.8562 6.42499 16.8562 6.18124C16.8562 5.93749 16.6625 5.74374 16.4187 5.74374H15.1062C14.8625 5.74374 14.6687 5.93749 14.6687 6.18124C14.6687 6.42499 14.8625 6.61874 15.1062 6.61874Z" fill="white"/>
<path d="M18.1312 6.61874H19.4437C19.6875 6.61874 19.8812 6.42499 19.8812 6.18124C19.8812 5.93749 19.6875 5.74374 19.4437 5.74374H18.1312C17.8875 5.74374 17.6937 5.93749 17.6937 6.18124C17.6937 6.42499 17.8875 6.61874 18.1312 6.61874Z" fill="white"/>
<path d="M30.4937 28.7063V21.175V17.7188C30.4937 15.3563 29.6187 13.0938 28.0375 11.35C26.55 9.71251 24.5562 8.65001 22.3875 8.33751V4.90001C22.3875 3.76876 21.4687 2.85001 20.3375 2.85001H3.55623C2.42498 2.85001 1.50623 3.76876 1.50623 4.90001V9.67501V11.45V14.9063C1.50623 17.3188 2.41248 19.625 4.06248 21.3875C5.61248 23.0438 7.66873 24.075 9.90623 24.3313V25.7875C9.90623 25.8188 9.91247 25.8438 9.91873 25.875V28.7125C9.91873 28.9563 10.1125 29.15 10.3562 29.15H30.0687C30.3 29.1438 30.4937 28.95 30.4937 28.7063ZM29.6187 17.7188V20C29.6187 19.9938 29.6187 19.9875 29.6125 19.9813C29.5937 19.9063 29.575 19.8375 29.55 19.7625C29.5437 19.7438 29.5375 19.725 29.5312 19.7C29.5062 19.625 29.4812 19.5438 29.4562 19.4688C29.4562 19.4625 29.45 19.4563 29.45 19.45C29.425 19.3813 29.4 19.3063 29.375 19.2375C29.3687 19.2188 29.3625 19.2 29.3562 19.175C29.3312 19.1 29.3 19.025 29.2687 18.95C29.2687 18.9438 29.2625 18.9375 29.2625 18.9313C29.2312 18.8625 29.2062 18.7875 29.175 18.7188C29.1687 18.7 29.1562 18.6813 29.15 18.6563C29.1187 18.5813 29.0875 18.5063 29.05 18.4313C29.05 18.425 29.0437 18.425 29.0437 18.4188C29.0125 18.35 28.975 18.275 28.9437 18.2063C28.9312 18.1875 28.925 18.1688 28.9125 18.15C28.875 18.075 28.8375 18.0063 28.8 17.9375C28.8 17.9375 28.8 17.9375 28.8 17.9313C27.3937 15.3188 24.8062 13.5 21.8937 13.0563C21.8375 13.0438 21.775 13.0375 21.7187 13.0313C21.7 13.0313 21.6812 13.025 21.6625 13.025H21.6562C21.65 13.025 21.6437 13.025 21.6312 13.025C21.625 13.025 21.6187 13.025 21.6187 13.025C21.6062 13.025 21.5937 13.025 21.575 13.0313C21.5687 13.0313 21.5687 13.0313 21.5625 13.0313C21.55 13.0313 21.5437 13.0375 21.5312 13.0375C21.525 13.0375 21.5187 13.0438 21.5125 13.0438C21.5062 13.0438 21.4937 13.05 21.4875 13.05C21.4812 13.05 21.475 13.0563 21.4687 13.0563C21.4625 13.0625 21.45 13.0625 21.4437 13.0688C21.4375 13.0688 21.4312 13.075 21.4312 13.075C21.425 13.0813 21.4125 13.0875 21.4062 13.0875C21.4 13.0875 21.4 13.0938 21.3937 13.0938C21.3812 13.1 21.3687 13.1125 21.3562 13.1188C21.2625 13.2 21.2062 13.325 21.2062 13.45V14.3438L20.8687 14.0875L16.85 11.025L18.1875 10.0063L21.2125 7.70626V8.67501C21.2125 8.90626 21.3875 9.09376 21.6187 9.11251C21.7187 9.11876 21.8062 9.12501 21.8937 9.13751C26.3062 9.61251 29.6187 13.2938 29.6187 17.7188ZM14.9937 20.375H25.7312C25.7437 20.65 25.8125 20.9188 25.9375 21.1688C26.2562 21.8125 26.8937 22.2188 27.6062 22.2438V24.6125C26.5937 24.6563 25.775 25.4688 25.7375 26.4813H14.6812C14.6375 25.4688 13.825 24.65 12.8125 24.6125V24.4563L14.4812 23.1875C14.4687 23.2688 14.4562 23.35 14.4562 23.4313C14.4562 23.9188 14.725 24.3563 15.1562 24.5813C15.3375 24.675 15.5437 24.725 15.75 24.725C16.2062 24.725 16.6312 24.4813 16.8625 24.0938C16.8687 24.0875 16.8687 24.0813 16.875 24.075C16.9875 23.8813 17.05 23.6563 17.05 23.425C17.05 22.7438 16.525 22.1875 15.8562 22.1313L16.1312 21.925C16.2375 21.8438 16.3062 21.7125 16.3062 21.575C16.3062 21.4375 16.2437 21.3125 16.1312 21.225L14.9937 20.375ZM15.75 23.0063C15.9812 23.0063 16.1687 23.1938 16.1687 23.425C16.1687 23.4938 16.15 23.5625 16.1187 23.625C16.1187 23.6313 16.1125 23.6313 16.1125 23.6375C16.0375 23.7688 15.9 23.85 15.75 23.85C15.6812 23.85 15.6187 23.8313 15.5562 23.8C15.4187 23.725 15.3312 23.5875 15.3312 23.425C15.325 23.2 15.5187 23.0063 15.75 23.0063ZM10.6062 17.0313C10.475 16.9313 10.2937 16.9125 10.15 16.9875C9.99998 17.0625 9.90623 17.2125 9.90623 17.3813V18.6438C9.83123 18.6313 9.75622 18.6125 9.68122 18.6C9.65623 18.5938 9.63122 18.5875 9.60623 18.5813C9.55622 18.5688 9.50623 18.5563 9.45623 18.5438C9.42498 18.5375 9.39998 18.5313 9.36873 18.5188C9.32498 18.5063 9.28123 18.4938 9.23748 18.4813C9.20623 18.475 9.17498 18.4625 9.14373 18.4563C9.09998 18.4438 9.05623 18.4313 9.01873 18.4188C8.98748 18.4063 8.95623 18.4 8.92498 18.3875C8.88123 18.375 8.84373 18.3625 8.79998 18.3438C8.76873 18.3313 8.73748 18.325 8.70623 18.3125C8.66248 18.3 8.62498 18.2813 8.58123 18.2688C8.54998 18.2563 8.51873 18.2438 8.49373 18.2375C8.44998 18.2188 8.41248 18.2063 8.36873 18.1875C8.33748 18.175 8.31248 18.1625 8.28123 18.1563C8.23748 18.1375 8.19373 18.1188 8.14998 18.1C8.12498 18.0875 8.09998 18.0813 8.07498 18.0688C8.01873 18.0438 7.96873 18.0188 7.91248 17.9938C7.89998 17.9875 7.88123 17.9813 7.86873 17.975C7.79998 17.9438 7.73123 17.9125 7.66873 17.875C7.64998 17.8625 7.62498 17.85 7.60623 17.8438C7.56248 17.8188 7.51873 17.8 7.46873 17.775C7.44373 17.7625 7.41873 17.7438 7.38748 17.7313C7.34998 17.7125 7.30623 17.6875 7.26873 17.6625C7.24373 17.6438 7.21248 17.6313 7.18748 17.6125C7.14998 17.5938 7.11248 17.5688 7.07498 17.5438C7.04373 17.525 7.01873 17.5063 6.98748 17.4938C6.94998 17.4688 6.91873 17.45 6.88123 17.425C6.84998 17.4063 6.82498 17.3875 6.79373 17.3688C6.75623 17.3438 6.72498 17.325 6.68748 17.3C6.66248 17.2813 6.63123 17.2625 6.60623 17.2438C6.56873 17.2188 6.53748 17.1938 6.49998 17.1688C6.47498 17.15 6.44998 17.1313 6.41873 17.1125C6.38123 17.0875 6.34998 17.0563 6.31248 17.0313C6.28748 17.0125 6.26248 16.9938 6.23748 16.975C6.19998 16.9438 6.15623 16.9125 6.11873 16.8813C6.09998 16.8688 6.08123 16.85 6.06248 16.8375C6.00623 16.7875 5.94998 16.7438 5.89373 16.6938C5.87498 16.6813 5.85623 16.6625 5.84373 16.65C5.80623 16.6125 5.76873 16.5813 5.72498 16.5438C5.69998 16.525 5.68123 16.5 5.65623 16.4813C5.62498 16.45 5.59373 16.4188 5.55623 16.3875C5.53123 16.3625 5.51248 16.3438 5.48748 16.3188C5.45623 16.2875 5.42498 16.2563 5.39373 16.225C5.36873 16.2 5.34373 16.175 5.32498 16.15C5.29373 16.1188 5.26873 16.0875 5.23748 16.0563C5.21248 16.0313 5.19373 16.0063 5.16873 15.9813C5.13748 15.95 5.11248 15.9188 5.08123 15.8875C5.05623 15.8625 5.03748 15.8375 5.01248 15.8125C4.98123 15.7813 4.95623 15.7438 4.93123 15.7125C4.91248 15.6875 4.88748 15.6625 4.86873 15.6375C4.83748 15.6 4.81248 15.5688 4.78123 15.5313C4.76248 15.5063 4.74373 15.4813 4.72498 15.4563C4.69373 15.4188 4.66248 15.375 4.63123 15.3375C4.61873 15.3188 4.59998 15.3 4.58748 15.275C4.54373 15.2125 4.49998 15.15 4.45623 15.0875C4.44998 15.075 4.44373 15.0688 4.43748 15.0563C4.40623 15.0063 4.36873 14.9563 4.33748 14.9063H20.325C20.375 14.9063 20.4187 14.9063 20.4687 14.9C20.475 14.9 20.475 14.9 20.4812 14.9L21.3812 15.5813C21.5125 15.6813 21.6937 15.7 21.8375 15.625C21.9875 15.55 22.0812 15.4 22.0812 15.2313V13.975C22.1562 13.9875 22.2312 14.0063 22.3062 14.0188C22.3312 14.025 22.3562 14.0313 22.3812 14.0375C22.4312 14.05 22.4812 14.0625 22.5312 14.075C22.5625 14.0813 22.5875 14.0875 22.6187 14.1C22.6625 14.1125 22.7062 14.125 22.75 14.1375C22.7812 14.1438 22.8125 14.1563 22.8437 14.1625C22.8875 14.175 22.9312 14.1875 22.975 14.2C23.0062 14.2125 23.0375 14.2188 23.0687 14.2313C23.1125 14.2438 23.15 14.2563 23.1937 14.275C23.225 14.2875 23.2562 14.2938 23.2875 14.3063C23.3312 14.3188 23.3687 14.3375 23.4125 14.35C23.4437 14.3625 23.4687 14.3688 23.5 14.3813C23.5437 14.4 23.5875 14.4125 23.6312 14.4313C23.6562 14.4438 23.6875 14.45 23.7125 14.4625C23.7562 14.4813 23.8062 14.5 23.85 14.5188C23.875 14.5313 23.8937 14.5375 23.9187 14.55C23.9812 14.575 24.0375 14.6063 24.1 14.6313C24.1062 14.6375 24.1125 14.6375 24.125 14.6438C24.1937 14.675 24.2625 14.7125 24.3312 14.7438C24.35 14.75 24.3687 14.7625 24.3875 14.7688C24.4375 14.7938 24.4875 14.8188 24.5312 14.8438C24.5562 14.8563 24.5812 14.8688 24.6 14.8813C24.6437 14.9063 24.6875 14.9313 24.725 14.95C24.75 14.9625 24.775 14.9813 24.8 14.9938C24.8375 15.0188 24.8812 15.0438 24.9187 15.0625C24.9437 15.0813 24.9687 15.0938 24.9937 15.1125C25.0312 15.1375 25.0687 15.1625 25.1125 15.1875C25.1375 15.2063 25.1625 15.2188 25.1875 15.2375C25.225 15.2625 25.2625 15.2875 25.3 15.3125C25.325 15.3313 25.35 15.3438 25.375 15.3625C25.4125 15.3875 25.45 15.4188 25.4937 15.4438C25.5187 15.4625 25.5375 15.475 25.5625 15.4938C25.6062 15.525 25.6437 15.5563 25.6875 15.5875C25.7062 15.6 25.725 15.6188 25.7437 15.6313C25.7937 15.6688 25.8437 15.7125 25.8937 15.75C25.9062 15.7563 25.9125 15.7625 25.925 15.775C25.9812 15.825 26.0437 15.875 26.1 15.925C26.1125 15.9313 26.1187 15.9438 26.125 15.95C26.175 15.9938 26.2187 16.0313 26.2687 16.075C26.2875 16.0938 26.3062 16.1063 26.3187 16.125C26.3562 16.1625 26.3937 16.1938 26.4312 16.2313C26.45 16.25 26.4687 16.2688 26.4937 16.2875C26.525 16.3188 26.5625 16.3563 26.5937 16.3875C26.6125 16.4063 26.6375 16.4313 26.6562 16.45C26.6875 16.4813 26.7187 16.5188 26.75 16.55C26.7687 16.575 26.7937 16.5938 26.8125 16.6188C26.8437 16.65 26.875 16.6875 26.9062 16.725C26.925 16.75 26.9437 16.7688 26.9625 16.7938C26.9937 16.8313 27.025 16.8688 27.0562 16.9C27.075 16.925 27.0937 16.9438 27.1125 16.9688C27.1437 17.0063 27.175 17.0438 27.2062 17.0875C27.225 17.1063 27.2375 17.1313 27.2562 17.15C27.2937 17.1938 27.325 17.2438 27.3625 17.2875C27.375 17.3 27.3875 17.3188 27.3937 17.3313C27.4375 17.3938 27.4812 17.4563 27.525 17.5188C27.5312 17.525 27.5375 17.5313 27.5375 17.5438C27.575 17.5938 27.6062 17.6438 27.6375 17.6938H11.4937L10.6062 17.0313ZM2.38123 10.1188H16.6375L15.875 10.7C15.7687 10.7813 15.7 10.9125 15.7 11.05C15.7 11.1875 15.7625 11.3125 15.875 11.4L16.2 11.65H3.06248C3.04998 11.5688 3.03748 11.4813 3.02498 11.4C2.99373 11.1813 2.81248 11.025 2.59373 11.025H2.38748V10.1188H2.38123ZM3.84373 14.0438C3.83748 14.0375 3.83748 14.0313 3.83123 14.0188C3.81248 13.9875 3.79998 13.9563 3.78123 13.9188C3.75623 13.8625 3.73123 13.8063 3.69998 13.7563C3.68123 13.7188 3.66873 13.6813 3.64998 13.65C3.62498 13.6 3.60623 13.5438 3.58123 13.4938C3.56873 13.4563 3.54998 13.4188 3.53748 13.3813C3.51873 13.3313 3.49373 13.275 3.47498 13.225C3.46248 13.1875 3.44373 13.15 3.43123 13.1125C3.41248 13.0563 3.39373 13.0063 3.37498 12.95C3.36248 12.9125 3.34998 12.875 3.33748 12.8375C3.31873 12.7813 3.29998 12.725 3.28748 12.6688C3.27498 12.6313 3.26248 12.5938 3.25623 12.5625C3.25623 12.55 3.24998 12.5375 3.24998 12.5313H17.3437L19.3437 14.0563H3.84373V14.0438ZM3.55623 3.73126H20.3437C20.9937 3.73126 21.5187 4.25626 21.5187 4.90626V6.43126H21.5125C21.5 6.43751 21.4875 6.44376 21.475 6.45001C21.4687 6.45001 21.4625 6.45626 21.4562 6.45626C21.4375 6.46876 21.4187 6.48126 21.4 6.49376L17.7875 9.24376H2.38123V4.90001C2.38123 4.25626 2.90623 3.73126 3.55623 3.73126ZM2.38123 14.9063V12.625C2.39373 12.6688 2.40623 12.7063 2.41873 12.75C2.43123 12.7813 2.43748 12.8188 2.44998 12.85C2.47498 12.9313 2.49998 13.0125 2.52498 13.0938C2.53123 13.1125 2.53748 13.1313 2.54373 13.1438C2.57498 13.2438 2.61248 13.3375 2.64373 13.4375C2.65623 13.4625 2.66248 13.4938 2.67498 13.5188C2.69998 13.5875 2.72498 13.6563 2.75623 13.725C2.76873 13.7625 2.78748 13.7938 2.79998 13.8313C2.82498 13.8938 2.84998 13.9563 2.88123 14.0188C2.89373 14.0563 2.91248 14.0875 2.92498 14.125C2.95623 14.1875 2.98748 14.2563 3.01873 14.3188C3.03123 14.35 3.04998 14.375 3.06248 14.4063C3.10623 14.5 3.15623 14.5938 3.20623 14.6813C4.64998 17.35 7.29373 19.1813 10.2937 19.5813C10.3125 19.5813 10.3312 19.5875 10.3437 19.5875H10.35C10.3625 19.5875 10.3687 19.5875 10.3812 19.5875H10.3875C10.4 19.5875 10.4187 19.5813 10.4312 19.5813H10.4375C10.45 19.5813 10.4625 19.575 10.475 19.575C10.4812 19.575 10.4812 19.575 10.4875 19.5688C10.4937 19.5688 10.5062 19.5625 10.5125 19.5563C10.5187 19.5563 10.525 19.55 10.525 19.55C10.5312 19.5438 10.5437 19.5438 10.55 19.5375C10.5562 19.5375 10.5562 19.5313 10.5625 19.5313C10.5687 19.525 10.5812 19.5188 10.5875 19.5125C10.5937 19.5125 10.5937 19.5063 10.6 19.5063C10.6125 19.5 10.625 19.4875 10.6375 19.4813C10.7312 19.4 10.7875 19.2813 10.7875 19.15V18.2563L11.0937 18.4875L15.15 21.575L12.1187 23.8813L10.7937 24.8938V23.925C10.7937 23.6938 10.6187 23.5063 10.3875 23.4875C5.88748 23.1813 2.38123 19.4063 2.38123 14.9063ZM29.6187 28.2688H10.7875V25.9938L11.9375 25.1188C11.9687 25.325 12.15 25.4875 12.3687 25.4875H12.725C13.3187 25.4875 13.8062 25.9688 13.8062 26.5688V26.925C13.8062 27.1688 14 27.3625 14.2437 27.3625H26.1625C26.4062 27.3625 26.6 27.1688 26.6 26.925V26.5625C26.6 25.9688 27.0812 25.4813 27.6812 25.4813H28.0375C28.2812 25.4813 28.475 25.2875 28.475 25.0438V21.8C28.475 21.5563 28.2812 21.3625 28.0375 21.3625H27.6812C27.2687 21.3625 26.9 21.1313 26.7187 20.7688C26.6437 20.6188 26.6062 20.4563 26.6062 20.2875V19.9375C26.6062 19.6938 26.4125 19.5 26.1687 19.5H14.2437C14.1375 19.5 14.0437 19.5375 13.9687 19.5938L12.6437 18.5875H28.15C28.1562 18.5938 28.1562 18.6063 28.1625 18.6125C28.2062 18.7063 28.25 18.8 28.2937 18.8875C28.3 18.9 28.3062 18.9125 28.3062 18.9188C28.35 19.0188 28.3937 19.1188 28.4312 19.2125C28.4312 19.2125 28.4312 19.2125 28.4312 19.2188C28.4687 19.3188 28.5062 19.4188 28.5437 19.5188C28.55 19.5313 28.55 19.5375 28.5562 19.55C28.5937 19.65 28.625 19.7438 28.6562 19.8438C28.6625 19.8563 28.6687 19.875 28.6687 19.8875C28.7 19.9813 28.725 20.0813 28.75 20.175C28.7562 20.1938 28.7562 20.2063 28.7625 20.225C28.7875 20.325 28.8125 20.4188 28.8375 20.5188C28.8437 20.5313 28.8437 20.55 28.85 20.5625C28.875 20.6625 28.8937 20.7625 28.9125 20.8688C28.9125 20.8813 28.9187 20.8938 28.9187 20.9C28.9375 21.0063 28.9562 21.1125 28.9687 21.225C28.9937 21.3875 29.1 21.5188 29.2437 21.575C29.2937 21.5938 29.3437 21.6063 29.4 21.6063H29.6062V28.2688H29.6187Z" fill="white"/>
<path d="M24.975 24.7688C25.7125 24.7688 26.3187 24.1688 26.3187 23.425C26.3187 22.6813 25.7187 22.0813 24.975 22.0813C24.2312 22.0813 23.6312 22.6813 23.6312 23.425C23.6312 24.1688 24.2375 24.7688 24.975 24.7688ZM24.975 22.9625C25.2312 22.9625 25.4437 23.175 25.4437 23.4313C25.4437 23.6875 25.2312 23.9 24.975 23.9C24.7187 23.9 24.5062 23.6875 24.5062 23.4313C24.5062 23.175 24.7187 22.9625 24.975 22.9625Z" fill="white"/>
<path d="M18.9 24.7938C19.2312 25.025 19.6062 25.175 20.0187 25.2188V25.5563C20.0187 25.6875 20.125 25.7875 20.2562 25.7875C20.3875 25.7875 20.4937 25.6813 20.4937 25.5563V25.2313C21.1875 25.1688 21.6562 24.7688 21.6562 24.1688C21.6562 23.5875 21.3 23.2563 20.475 23.0438V22C20.6625 22.0438 20.8437 22.125 21.0375 22.2375C21.0937 22.2688 21.1437 22.2875 21.2 22.2875C21.3687 22.2875 21.5062 22.1563 21.5062 21.9875C21.5062 21.8563 21.4312 21.775 21.3437 21.725C21.0937 21.5688 20.8187 21.4625 20.5 21.425V21.3063C20.5 21.175 20.3937 21.075 20.2625 21.075C20.1312 21.075 20.025 21.1813 20.025 21.3063V21.4188C19.3437 21.475 18.8812 21.875 18.8812 22.4563C18.8812 22.7063 18.9437 22.9063 19.0687 23.0625C19.25 23.3 19.575 23.4563 20.05 23.575V24.65C19.75 24.5938 19.5 24.4688 19.2437 24.2875C19.1937 24.25 19.1312 24.225 19.0625 24.225C18.8937 24.225 18.7625 24.3563 18.7625 24.525C18.7562 24.6438 18.8125 24.7313 18.9 24.7938ZM20.4687 23.6875C20.8875 23.8188 21.0062 23.9625 21.0062 24.2063C21.0062 24.4688 20.8187 24.6438 20.4687 24.6813V23.6875ZM19.825 22.8438C19.5875 22.7313 19.5187 22.6063 19.5187 22.4188C19.5187 22.1813 19.6937 21.9938 20.0437 21.9625V22.925C19.9562 22.9 19.8812 22.875 19.825 22.8438Z" fill="white"/>
</svg>
