<svg width="28" height="31" viewBox="0 0 28 31" fill="none" xmlns="http://www.w3.org/2000/svg">
<path d="M14 17.36C17.507 17.36 20.36 14.506 20.36 11V3.77702L14 0.598022L7.64 3.77802V11C7.64 14.507 10.493 17.36 14 17.36ZM8.35999 4.22302L14 1.40202L19.64 4.22202V6.41702L14.161 3.67802L13.839 4.32202L19.64 7.22202V9.41702L14.161 6.67802L13.839 7.32202L19.64 10.222V11C19.64 11.46 19.578 11.906 19.474 12.334L14.162 9.67802L13.84 10.322L19.257 13.03C19.016 13.651 18.67 14.218 18.238 14.711L14.162 12.678L13.841 13.323L17.7 15.249C16.707 16.112 15.416 16.64 14 16.64C10.89 16.64 8.35999 14.11 8.35999 11V4.22302ZM26.841 20.669L20.739 26.771C20.37 27.14 19.882 27.378 19.364 27.443L12.167 28.342L10.254 30.255L9.745 29.745L11.832 27.658L19.274 26.727C19.633 26.683 19.972 26.517 20.228 26.26L26.33 20.158C26.741 19.748 26.741 19.079 26.33 18.667C25.919 18.256 25.249 18.257 24.84 18.668L18.496 23.824L18.492 23.819C18.086 24.151 17.574 24.359 17.01 24.359H12.009V23.64H17.01C17.913 23.64 18.648 22.906 18.648 22.002C18.648 21.648 18.361 21.36 18.008 21.36H10.258C7.644 21.36 5.499 23.403 5.373 26.011L5.368 26.15L1.254 30.254L0.744995 29.744L4.663 25.835C4.876 22.91 7.307 20.639 10.258 20.639H18.008C18.758 20.639 19.368 21.249 19.368 21.999C19.368 22.07 19.353 22.137 19.347 22.206L24.358 18.134C25.021 17.468 26.148 17.467 26.838 18.158C27.532 18.852 27.531 19.978 26.841 20.669Z" fill="white"/>
</svg>
