<svg width="26" height="32" viewBox="0 0 26 32" fill="none" xmlns="http://www.w3.org/2000/svg">
<path d="M15.5217 20.1314C15.2303 20.1314 14.9942 20.3676 14.9942 20.6589V25.9738H1.68702V12.666H5.74786C6.03924 12.666 6.27533 12.4299 6.27533 12.1386C6.27533 11.8473 6.03924 11.6111 5.74786 11.6111H1.68702V9.37685C1.68702 8.44934 2.44159 7.69478 3.36917 7.69478H4.12866C4.42004 7.69478 4.65613 7.45861 4.65613 7.1673C4.65613 6.876 4.42004 6.63983 4.12866 6.63983H3.36917C1.85997 6.63983 0.63208 7.86765 0.63208 9.37685V29.2629C0.63208 30.7721 1.85997 31.9999 3.36917 31.9999H13.3122C14.8214 31.9999 16.0493 30.7721 16.0493 29.2629V20.6589C16.0492 20.3676 15.8131 20.1314 15.5217 20.1314ZM13.3121 30.9451H3.36917C2.44166 30.9451 1.68702 30.1905 1.68702 29.263V27.0288H14.9943V29.263C14.9942 30.1905 14.2397 30.9451 13.3121 30.9451Z" fill="white"/>
<path d="M10.7541 7.4074C9.98708 7.28193 9.95473 7.20696 9.95473 7.04949C9.95473 6.77106 10.4221 6.69749 10.6691 6.69749C11.0661 6.69749 11.3222 6.83126 11.3701 6.96341C11.4693 7.23727 11.7718 7.37899 12.0457 7.27961C12.3196 7.18038 12.4612 6.87789 12.362 6.60402C12.147 6.01093 11.4984 5.64255 10.6691 5.64255C9.62734 5.64255 8.89978 6.22108 8.89978 7.04949C8.89978 8.17308 9.95395 8.34553 10.5838 8.44856C11.3513 8.5741 11.3836 8.64921 11.3836 8.8071C11.3836 9.08554 10.9162 9.1591 10.6691 9.1591C10.2721 9.1591 10.016 9.02526 9.96816 8.89304C9.86906 8.61904 9.56644 8.47754 9.29271 8.57649C9.01878 8.67558 8.87706 8.978 8.97616 9.25194C9.19087 9.84538 9.83953 10.214 10.6691 10.214C11.7109 10.214 12.4386 9.63551 12.4386 8.8071C12.4386 7.68295 11.3841 7.51043 10.7541 7.4074Z" fill="white"/>
<path d="M20.4593 7.4074C19.6923 7.28193 19.6599 7.20696 19.6599 7.04949C19.6599 6.77106 20.1273 6.69749 20.3743 6.69749C20.7713 6.69749 21.0274 6.83133 21.0754 6.96348C21.1746 7.23734 21.477 7.37913 21.751 7.27961C22.0249 7.18031 22.1664 6.87782 22.0671 6.60395C21.8521 6.01093 21.2035 5.64255 20.3743 5.64255C19.3325 5.64255 18.605 6.22108 18.605 7.04949C18.605 8.17308 19.6592 8.34553 20.289 8.44856C21.0565 8.5741 21.0888 8.64921 21.0888 8.8071C21.0888 9.08554 20.6214 9.1591 20.3743 9.1591C19.9773 9.1591 19.7211 9.02519 19.6732 8.89297C19.5741 8.61911 19.2718 8.47718 18.9978 8.57649C18.7238 8.67566 18.5822 8.97807 18.6814 9.25201C18.8961 9.84545 19.5448 10.214 20.3743 10.214C21.4161 10.214 22.1438 9.63551 22.1438 8.8071C22.1438 7.68295 21.0893 7.51043 20.4593 7.4074Z" fill="white"/>
<path d="M17.205 5.6751C16.9976 5.59865 16.7647 5.65955 16.6213 5.8275L15.5217 7.11573L14.4221 5.8275C14.2787 5.65948 14.0456 5.59858 13.8384 5.6751C13.6312 5.75147 13.4935 5.94903 13.4935 6.17001V9.68649C13.4935 9.9778 13.7296 10.214 14.0209 10.214C14.3123 10.214 14.5484 9.9778 14.5484 9.68649V7.60044L15.1205 8.27068C15.2208 8.38806 15.3673 8.45572 15.5217 8.45572C15.6761 8.45572 15.8226 8.38813 15.9229 8.27068L16.495 7.60044V9.68649C16.495 9.9778 16.7311 10.214 17.0225 10.214C17.3138 10.214 17.5499 9.9778 17.5499 9.68649V6.17001C17.5499 5.94903 17.4122 5.75155 17.205 5.6751Z" fill="white"/>
<path d="M22.439 2.28206C20.5859 0.810409 18.1294 0 15.5216 0C12.9139 0 10.4572 0.810479 8.60427 2.28206C6.71564 3.78205 5.67554 5.78722 5.67554 7.92826C5.67554 11.6865 8.90838 14.8915 13.4223 15.6761C13.5044 16.8478 13.0806 18.0109 12.2521 18.8474C12.1022 18.9986 12.058 19.2251 12.14 19.4216C12.2219 19.618 12.4139 19.746 12.6268 19.746C15.0389 19.746 17.1104 18.0241 17.5987 15.6799C22.1245 14.902 25.3678 11.6928 25.3678 7.92826C25.3678 5.78729 24.3277 3.78205 22.439 2.28206ZM17.0564 14.6965C16.7817 14.7345 16.5832 14.9785 16.6023 15.2552C16.6024 15.2577 16.6027 15.2601 16.6029 15.2625C16.3601 16.8153 15.2515 18.0574 13.8187 18.5082C14.3689 17.5335 14.595 16.3896 14.439 15.2581C14.439 15.257 14.4391 15.2561 14.4392 15.2551C14.4582 14.9785 14.2598 14.7343 13.9851 14.6964C9.78152 14.1154 6.73055 11.269 6.73055 7.92833C6.73055 4.13834 10.6742 1.05502 15.5217 1.05502C20.3692 1.05502 24.313 4.13834 24.313 7.92833C24.3129 11.2696 21.2612 14.1161 17.0564 14.6965Z" fill="white"/>
</svg>
