<svg width="32" height="32" viewBox="0 0 32 32" fill="none" xmlns="http://www.w3.org/2000/svg">
<g clip-path="url(#clip0_59_83)">
<path d="M29.4191 19.6126H25.2055C25.5405 18.952 25.8083 18.2635 25.9931 17.5481H27.8708V12.3869H25.9926C25.7526 11.4553 25.382 10.5645 24.8876 9.72941L26.2181 8.39833L22.5687 4.74884L21.2376 6.0794C20.402 5.58496 19.5112 5.2149 18.5801 4.97439V3.09674H13.4194V4.9749C12.4878 5.2149 11.597 5.58547 10.7619 6.07992L9.4308 4.74936L5.78131 8.39885L7.11187 9.72992C6.61743 10.5655 6.24737 11.4563 6.00686 12.3874H4.12921V17.5486H6.00737C6.19163 18.264 6.4595 18.9525 6.79497 19.6131H2.58085C1.1579 19.6131 0.000244141 20.7708 0.000244141 22.1937V29.4194C0.000244141 30.8424 1.1579 32 2.58085 32H29.4191C30.8421 32 31.9997 30.8424 31.9997 29.4194V22.1932C31.9997 20.7703 30.8421 19.6126 29.4191 19.6126ZM5.16145 16.5159V13.4192H6.83265L6.91988 13.0114C7.15471 11.9193 7.58515 10.8835 8.19934 9.93328L8.4254 9.58283L7.2409 8.39833L9.4308 6.20843L10.6153 7.39293L10.9657 7.16687C11.9159 6.55269 12.9518 6.12224 14.0439 5.88741L14.4516 5.80018V4.12898H17.5483V5.80018L17.9561 5.88741C19.0482 6.12224 20.0841 6.55269 21.0342 7.16687L21.3847 7.39293L22.5692 6.20843L24.7591 8.39833L23.5746 9.58283L23.8006 9.93328C24.4148 10.8835 24.8453 11.9193 25.0801 13.0114L25.1673 13.4192H26.8385V16.5159H25.1673L25.0801 16.9236C24.8767 17.8702 24.518 18.7698 24.0282 19.6126H19.25C19.6634 19.321 20.0391 18.9711 20.3705 18.568C22.2502 18.4431 23.7418 16.8777 23.7418 14.9675C23.7418 13.0568 22.2497 11.492 20.3705 11.3671C19.2861 10.0479 17.7109 9.29019 16 9.29019C14.289 9.29019 12.7138 10.0479 11.6295 11.3671C9.75028 11.492 8.25818 13.0568 8.25818 14.9675C8.25818 16.8777 9.74976 18.4431 11.6295 18.568C11.9608 18.9706 12.3366 19.321 12.75 19.6126H7.97173C7.48245 18.7698 7.12323 17.8702 6.91988 16.9236L6.83265 16.5159H5.16145ZM13.9515 13.3154L15.328 14.9675L13.9515 16.6191C13.4596 17.2095 12.7371 17.5481 11.9691 17.5481H11.871C10.4481 17.5481 9.29042 16.3905 9.29042 14.9675C9.29042 13.5446 10.4481 12.3869 11.871 12.3869H11.9691C12.7371 12.3869 13.4596 12.7255 13.9515 13.3154ZM12.9337 11.4909C13.7745 10.7431 14.8496 10.3224 16 10.3224C17.1504 10.3224 18.2255 10.7431 19.0663 11.4904C18.3659 11.6845 17.7321 12.0824 17.2557 12.6548L16 14.1613L14.7443 12.6548C14.2674 12.0829 13.6341 11.6845 12.9337 11.4909ZM14.7443 17.2803L16 15.7737L17.2557 17.2803C17.7326 17.8521 18.3659 18.25 19.0663 18.4441C18.225 19.192 17.1499 19.6126 16 19.6126C14.8501 19.6126 13.775 19.192 12.9337 18.4441C13.6346 18.2506 14.2679 17.8526 14.7443 17.2803ZM18.0485 16.6191L16.672 14.9675L18.0485 13.3154C18.5403 12.7255 19.2629 12.3869 20.0309 12.3869H20.129C21.5519 12.3869 22.7096 13.5446 22.7096 14.9675C22.7096 16.3905 21.5519 17.5481 20.129 17.5481H20.0309C19.2629 17.5481 18.5403 17.2095 18.0485 16.6191ZM30.9675 29.4189C30.9675 30.2726 30.2728 30.9673 29.4191 30.9673H2.58085C1.72718 30.9673 1.03249 30.2726 1.03249 29.4189V22.1932C1.03249 21.3395 1.72718 20.6448 2.58085 20.6448H29.4191C30.2728 20.6448 30.9675 21.3395 30.9675 22.1932V29.4189Z" fill="white"/>
<path d="M9.80656 22.6701L8.84761 28.9028H8.67213L7.63989 24.2577H5.77979L4.74703 28.9028H4.57206L3.61311 22.6701V21.6771H2.58087V22.7093L3.6864 29.935H5.5754L6.60765 25.2899H6.81203L7.84427 29.935H9.73327L10.8326 22.7878L10.8388 21.6771H9.80656V22.6701Z" fill="white"/>
<path d="M19.0967 22.6701L18.1378 28.9028H17.9623L16.93 24.2577H15.0699L14.0372 28.9028H13.8622L12.9033 22.6701V21.6771H11.871V22.7093L12.9766 29.935H14.8656L15.8978 25.2899H16.1022L17.1344 29.935H19.0234L20.1228 22.7878L20.129 21.6771H19.0967V22.6701Z" fill="white"/>
<path d="M28.3869 22.6701L27.4279 28.9028H27.2525L26.2202 24.2577H24.3601L23.3274 28.9028H23.1524L22.1934 22.6701V21.6771H21.1612V22.7093L22.2667 29.935H24.1557L25.188 25.2899H25.3924L26.4246 29.935H28.3136L29.4129 22.7878L29.4191 21.6771H28.3869V22.6701Z" fill="white"/>
<path d="M30.9675 0H29.9352V1.03224H30.9675V0Z" fill="white"/>
<path d="M31.9997 1.03223H30.9675V2.06447H31.9997V1.03223Z" fill="white"/>
<path d="M30.9675 2.06445H29.9352V3.09669H30.9675V2.06445Z" fill="white"/>
<path d="M29.9353 1.03223H28.903V2.06447H29.9353V1.03223Z" fill="white"/>
<path d="M24.7741 2.06445H23.7418V3.09669H24.7741V2.06445Z" fill="white"/>
<path d="M25.8063 3.09674H24.774V4.12898H25.8063V3.09674Z" fill="white"/>
<path d="M24.7741 4.12897H23.7418V5.16121H24.7741V4.12897Z" fill="white"/>
<path d="M23.7418 3.09674H22.7095V4.12898H23.7418V3.09674Z" fill="white"/>
<path d="M29.9353 8.77405H28.903V9.80629H29.9353V8.77405Z" fill="white"/>
<path d="M30.9675 9.80627H29.9352V10.8385H30.9675V9.80627Z" fill="white"/>
<path d="M29.9353 10.8386H28.903V11.8708H29.9353V10.8386Z" fill="white"/>
<path d="M28.903 9.80627H27.8708V10.8385H28.903V9.80627Z" fill="white"/>
<path d="M5.16145 1.54834H4.12921V2.58058H5.16145V1.54834Z" fill="white"/>
<path d="M6.19368 2.58063H5.16144V3.61287H6.19368V2.58063Z" fill="white"/>
<path d="M5.16145 3.61285H4.12921V4.6451H5.16145V3.61285Z" fill="white"/>
<path d="M4.12923 2.58063H3.09698V3.61287H4.12923V2.58063Z" fill="white"/>
<path d="M2.06471 10.3224H1.03247V11.3546H2.06471V10.3224Z" fill="white"/>
<path d="M3.09694 11.3547H2.0647V12.3869H3.09694V11.3547Z" fill="white"/>
<path d="M2.06471 12.3869H1.03247V13.4191H2.06471V12.3869Z" fill="white"/>
<path d="M1.03249 11.3547H0.000244141V12.3869H1.03249V11.3547Z" fill="white"/>
</g>
<defs>
<clipPath id="clip0_59_83">
<rect width="32" height="32" fill="white"/>
</clipPath>
</defs>
</svg>
