<svg width="32" height="32" viewBox="0 0 32 32" fill="none" xmlns="http://www.w3.org/2000/svg">
<path d="M18.5217 20.1314C18.2303 20.1314 17.9942 20.3676 17.9942 20.6589V25.9738H4.68702V12.666H8.74786C9.03924 12.666 9.27533 12.4299 9.27533 12.1386C9.27533 11.8473 9.03924 11.6111 8.74786 11.6111H4.68702V9.37685C4.68702 8.44934 5.44159 7.69478 6.36917 7.69478H7.12866C7.42004 7.69478 7.65613 7.45861 7.65613 7.1673C7.65613 6.876 7.42004 6.63983 7.12866 6.63983H6.36917C4.85997 6.63983 3.63208 7.86765 3.63208 9.37685V29.2629C3.63208 30.7721 4.85997 31.9999 6.36917 31.9999H16.3122C17.8214 31.9999 19.0493 30.7721 19.0493 29.2629V20.6589C19.0492 20.3676 18.8131 20.1314 18.5217 20.1314ZM16.3121 30.9451H6.36917C5.44166 30.9451 4.68702 30.1905 4.68702 29.263V27.0288H17.9943V29.263C17.9942 30.1905 17.2397 30.9451 16.3121 30.9451Z" fill="white"/>
<path d="M13.7541 7.4074C12.9871 7.28193 12.9547 7.20696 12.9547 7.04949C12.9547 6.77106 13.4221 6.69749 13.6691 6.69749C14.0661 6.69749 14.3222 6.83126 14.3701 6.96341C14.4693 7.23727 14.7718 7.37899 15.0457 7.27961C15.3196 7.18038 15.4612 6.87789 15.362 6.60402C15.147 6.01093 14.4984 5.64255 13.6691 5.64255C12.6273 5.64255 11.8998 6.22108 11.8998 7.04949C11.8998 8.17308 12.954 8.34553 13.5838 8.44856C14.3513 8.5741 14.3836 8.64921 14.3836 8.8071C14.3836 9.08554 13.9162 9.1591 13.6691 9.1591C13.2721 9.1591 13.016 9.02526 12.9682 8.89304C12.8691 8.61904 12.5664 8.47754 12.2927 8.57649C12.0188 8.67558 11.8771 8.978 11.9762 9.25194C12.1909 9.84538 12.8395 10.214 13.6691 10.214C14.7109 10.214 15.4386 9.63551 15.4386 8.8071C15.4386 7.68295 14.3841 7.51043 13.7541 7.4074Z" fill="white"/>
<path d="M23.4593 7.4074C22.6923 7.28193 22.6599 7.20696 22.6599 7.04949C22.6599 6.77106 23.1273 6.69749 23.3743 6.69749C23.7713 6.69749 24.0274 6.83133 24.0754 6.96348C24.1746 7.23734 24.477 7.37913 24.751 7.27961C25.0249 7.18031 25.1664 6.87782 25.0671 6.60395C24.8521 6.01093 24.2035 5.64255 23.3743 5.64255C22.3325 5.64255 21.605 6.22108 21.605 7.04949C21.605 8.17308 22.6592 8.34553 23.289 8.44856C24.0565 8.5741 24.0888 8.64921 24.0888 8.8071C24.0888 9.08554 23.6214 9.1591 23.3743 9.1591C22.9773 9.1591 22.7211 9.02519 22.6732 8.89297C22.5741 8.61911 22.2718 8.47718 21.9978 8.57649C21.7238 8.67566 21.5822 8.97807 21.6814 9.25201C21.8961 9.84545 22.5448 10.214 23.3743 10.214C24.4161 10.214 25.1438 9.63551 25.1438 8.8071C25.1438 7.68295 24.0893 7.51043 23.4593 7.4074Z" fill="white"/>
<path d="M20.205 5.6751C19.9976 5.59865 19.7647 5.65955 19.6213 5.8275L18.5217 7.11573L17.4221 5.8275C17.2787 5.65948 17.0456 5.59858 16.8384 5.6751C16.6312 5.75147 16.4935 5.94903 16.4935 6.17001V9.68649C16.4935 9.9778 16.7296 10.214 17.0209 10.214C17.3123 10.214 17.5484 9.9778 17.5484 9.68649V7.60044L18.1205 8.27068C18.2208 8.38806 18.3673 8.45572 18.5217 8.45572C18.6761 8.45572 18.8226 8.38813 18.9229 8.27068L19.495 7.60044V9.68649C19.495 9.9778 19.7311 10.214 20.0225 10.214C20.3138 10.214 20.5499 9.9778 20.5499 9.68649V6.17001C20.5499 5.94903 20.4122 5.75155 20.205 5.6751Z" fill="white"/>
<path d="M25.439 2.28206C23.5859 0.810409 21.1294 0 18.5216 0C15.9139 0 13.4572 0.810479 11.6043 2.28206C9.71564 3.78205 8.67554 5.78722 8.67554 7.92826C8.67554 11.6865 11.9084 14.8915 16.4223 15.6761C16.5044 16.8478 16.0806 18.0109 15.2521 18.8474C15.1022 18.9986 15.058 19.2251 15.14 19.4216C15.2219 19.618 15.4139 19.746 15.6268 19.746C18.0389 19.746 20.1104 18.0241 20.5987 15.6799C25.1245 14.902 28.3678 11.6928 28.3678 7.92826C28.3678 5.78729 27.3277 3.78205 25.439 2.28206ZM20.0564 14.6965C19.7817 14.7345 19.5832 14.9785 19.6023 15.2552C19.6024 15.2577 19.6027 15.2601 19.6029 15.2625C19.3601 16.8153 18.2515 18.0574 16.8187 18.5082C17.3689 17.5335 17.595 16.3896 17.439 15.2581C17.439 15.257 17.4391 15.2561 17.4392 15.2551C17.4582 14.9785 17.2598 14.7343 16.9851 14.6964C12.7815 14.1154 9.73055 11.269 9.73055 7.92833C9.73055 4.13834 13.6742 1.05502 18.5217 1.05502C23.3692 1.05502 27.313 4.13834 27.313 7.92833C27.3129 11.2696 24.2612 14.1161 20.0564 14.6965Z" fill="white"/>
<g clip-path="url(#clip0_62_181)">
<path d="M12.925 23.3085C12.6644 22.8159 11.7595 22.2818 11.7197 22.2584C11.6034 22.1923 11.4821 22.1572 11.3685 22.1572C11.1997 22.1572 11.0615 22.2346 10.9778 22.3752C10.8454 22.5335 10.6813 22.7186 10.6414 22.7473C10.3331 22.9565 10.0917 22.9327 9.82467 22.6657L8.33415 21.175C8.06877 20.9096 8.04437 20.6653 8.25213 20.3586C8.2812 20.3185 8.46625 20.1542 8.62457 20.0217C8.72553 19.9617 8.79483 19.8724 8.82519 19.7629C8.86555 19.6171 8.83583 19.4457 8.74058 19.2787C8.71813 19.2403 8.18374 18.3353 7.6914 18.0748C7.59952 18.0262 7.49597 18.0005 7.39215 18.0005C7.22112 18.0005 7.0602 18.0672 6.93926 18.188L6.6099 18.5172C6.08901 19.038 5.90046 19.6283 6.04917 20.2717C6.17323 20.8079 6.53477 21.3785 7.12392 21.9675L9.03217 23.8757C9.77783 24.6214 10.4887 24.9995 11.1451 24.9995C11.6279 24.9995 12.0779 24.7944 12.4825 24.3899L12.8117 24.0607C13.0118 23.8607 13.0572 23.5583 12.925 23.3085Z" fill="white"/>
<path d="M9.83593 21.2346C9.85177 21.2413 9.86864 21.2446 9.88551 21.2446H11.4427C11.5144 21.2446 11.5725 21.1866 11.5725 21.1149C11.5725 21.0431 11.5144 20.9851 11.4427 20.9851H10.1988L12.1833 19.0005C12.2341 18.9498 12.2341 18.8678 12.1833 18.817C12.1326 18.7663 12.0506 18.7663 11.9998 18.817L10.0153 20.8016V19.5576C10.0153 19.4859 9.95714 19.4279 9.88551 19.4279C9.81387 19.4279 9.75574 19.4859 9.75574 19.5576V21.1149C9.75574 21.1317 9.75924 21.1486 9.76573 21.1644C9.77897 21.1962 9.80427 21.2215 9.83593 21.2346Z" fill="white"/>
</g>
<defs>
<clipPath id="clip0_62_181">
<rect width="7" height="7" fill="white" transform="translate(6 18)"/>
</clipPath>
</defs>
</svg>
