<svg width="50" height="50" viewBox="0 0 50 50" fill="none" xmlns="http://www.w3.org/2000/svg">
<path d="M42.6779 7.32266C37.9561 2.60059 31.6778 0 25 0C18.3227 0 12.0447 2.60059 7.32266 7.32266C2.60059 12.0447 0 18.3227 0 25C0 31.6785 2.60059 37.9568 7.32266 42.6785C12.0444 47.3999 18.3224 50 25 50C31.6782 50 37.9563 47.3999 42.6778 42.6785C47.3996 37.9569 50 31.6786 50 25C50 18.3225 47.3996 12.0445 42.6779 7.32266ZM41.573 41.5736C37.1466 45.9999 31.2608 48.4375 25 48.4375C18.7396 48.4375 12.8541 45.9999 8.42744 41.5736C4.00049 37.1471 1.5625 31.261 1.5625 25C1.5625 18.74 4.00049 12.8545 8.42744 8.42754C12.8545 4.00049 18.74 1.5625 25 1.5625C31.2605 1.5625 37.1463 4.00049 41.573 8.42744C45.9997 12.8543 48.4375 18.7398 48.4375 25C48.4375 31.2612 45.9997 37.1472 41.573 41.5736Z" fill="white"/>
<path d="M41.9959 11.2274C41.724 10.8923 41.2321 10.841 40.897 11.113C40.5619 11.3849 40.5107 11.8769 40.7825 12.2118C43.7037 15.8124 45.3125 20.354 45.3125 25C45.3125 30.4265 43.1997 35.5276 39.3634 39.3639C35.5271 43.1999 30.4261 45.3125 25 45.3125C19.9941 45.3125 15.1851 43.4759 11.4587 40.141C11.1372 39.8533 10.6433 39.8807 10.3556 40.2021C10.0679 40.5236 10.0952 41.0176 10.4167 41.3053C14.43 44.897 19.6091 46.875 25 46.875C30.8435 46.875 36.3368 44.5999 40.4682 40.4686C44.5997 36.3373 46.875 30.8437 46.875 25C46.875 19.9967 45.1422 15.1056 41.9959 11.2274Z" fill="white"/>
<path d="M4.6875 25C4.6875 13.7997 13.7997 4.6875 25 4.6875C30.0059 4.6875 34.8148 6.52422 38.5412 9.85928C38.8628 10.1472 39.3567 10.1196 39.6443 9.79824C39.9321 9.47676 39.9048 8.98281 39.5833 8.69512C35.57 5.10313 30.3909 3.125 25 3.125C19.1573 3.125 13.6642 5.40049 9.53232 9.53232C5.40049 13.6641 3.125 19.1573 3.125 25C3.125 30.0039 4.85781 34.8953 8.0042 38.7732C8.15859 38.9636 8.38398 39.0623 8.61133 39.0623C8.78428 39.0623 8.9583 39.0052 9.10313 38.8877C9.43818 38.6158 9.48945 38.1238 9.21758 37.7888C6.29629 34.1883 4.6875 29.6465 4.6875 25Z" fill="white"/>
<path d="M36.0326 12.0616L22.9464 18.1534C22.6057 18.3119 22.4581 18.7168 22.6167 19.0575C22.7754 19.3982 23.1801 19.546 23.5207 19.3872L31.5931 15.6293L27.6686 18.8064L18.6624 26.0971L13.7364 23.9419L20.6392 20.7286C20.9799 20.5699 21.1275 20.1652 20.9689 19.8245C20.8103 19.4838 20.4054 19.336 20.0649 19.4947L12.6347 22.9537C12.2396 23.1375 11.9903 23.5398 12.0003 23.9752C12.0101 24.4013 12.2676 24.7848 12.6579 24.9555L18.1582 27.3618L19.7691 37.0272C19.8683 37.6248 20.6775 37.795 21.0095 37.2882L25.579 30.3137L34.2205 34.3464C34.9129 34.6698 35.7368 34.1756 35.7815 33.4156L36.999 12.7181C37.0002 12.6989 37.0001 12.6792 36.9997 12.6599C36.9861 12.1783 36.4687 11.8599 36.0326 12.0616ZM20.558 33.4831L19.5052 27.1658L30.2312 18.4828L22.0219 27.6871C21.948 27.7699 21.8932 27.8742 21.8678 27.9824L20.558 33.4831ZM22.0036 33.2879L22.9983 29.1095L24.333 29.7323L22.0036 33.2879ZM25.0865 28.5822L23.6464 27.9102L30.7311 19.9668L29.7064 21.5309L25.0865 28.5822ZM34.4457 32.9499L26.3325 29.1637L35.4907 15.1856L34.4457 32.9499Z" fill="white"/>
</svg>
